<?xml version="1.0" encoding="UTF-8"?><svg id="Layer_1" xmlns="http://www.w3.org/2000/svg" viewBox="0 0 25 25"><defs><style>.cls-1{fill:#fff;}.cls-2{fill:#a500f2;}</style></defs><circle class="cls-2" cx="12.5" cy="12.5" r="12.5"/><g><path class="cls-1" d="M15.36,5.48h-5.71c-2.19,0-3.98,1.79-3.98,3.98v6.09c0,2.19,1.79,3.98,3.98,3.98h5.71c2.19,0,3.98-1.79,3.98-3.98v-6.09c0-2.19-1.79-3.98-3.98-3.98Zm2.93,10.07c0,.78-.31,1.51-.86,2.07s-1.29,.86-2.07,.86h-5.71c-.78,0-1.51-.31-2.07-.86s-.86-1.29-.86-2.07v-6.09c0-.78,.31-1.51,.86-2.07s1.29-.86,2.07-.86h5.71c.78,0,1.51,.31,2.07,.86s.86,1.29,.86,2.07v6.09Z"/><path class="cls-1" d="M12.52,8.68c-2.08,0-3.76,1.68-3.76,3.76s1.68,3.76,3.76,3.76,3.76-1.68,3.76-3.76-1.68-3.76-3.76-3.76Zm-.02,6.23c-1.36,0-2.46-1.1-2.46-2.46s1.1-2.46,2.46-2.46,2.46,1.1,2.46,2.46-1.1,2.46-2.46,2.46Z"/><circle class="cls-1" cx="16.34" cy="8.62" r=".89"/></g></svg>