<?xml version="1.0" encoding="UTF-8"?><svg id="Layer_1" xmlns="http://www.w3.org/2000/svg" viewBox="0 0 25 25"><defs><style>.cls-1{fill:#fff;fill-rule:evenodd;}.cls-2{fill:#39b54a;}</style></defs><circle class="cls-2" cx="12.5" cy="12.5" r="12.5"/><g><path class="cls-1" d="M18.76,10.68c-.7-2.93-3.22-4.92-6.26-4.96-.4,.01-.83,.05-1.23,.13-4.26,.85-6.46,5.56-4.4,9.35,.07,.1,.07,.2,.06,.31-.3,.98-.58,1.99-.84,2.98q-.04,.18,.12,.13c1.04-.28,2.07-.55,3.11-.8,.09-.03,.15-.03,.23,.01,1.33,.68,2.74,.86,4.22,.59,3.52-.68,5.83-4.27,4.99-7.75Zm-5.36,6.72c-.31,.06-.6,.09-.74,.06-1.13,0-2.05-.25-2.9-.74-.12-.07-.21-.1-.33-.05-.58,.14-1.15,.3-1.72,.44-.12,.04-.13,.02-.1-.1,.15-.53,.3-1.07,.46-1.62,.04-.15,.03-.26-.07-.38-1.16-1.89-1.11-4.23,.19-5.98,1.36-1.81,3.22-2.56,5.43-2.09,2.18,.46,3.58,1.88,4.08,4.05,.71,2.97-1.3,5.92-4.3,6.41Z"/><path class="cls-1" d="M14.18,15.2c-.22,.02-.45-.02-.67-.09-1.47-.43-2.58-1.33-3.47-2.55-.33-.45-.65-.94-.75-1.51-.14-.67,.07-1.26,.58-1.72,.17-.16,.66-.23,.86-.13,.06,.06,.1,.11,.14,.18,.18,.45,.38,.88,.56,1.31,.03,.09,.02,.18-.03,.27-.1,.2-.25,.36-.39,.53-.12,.11-.12,.23-.04,.35,.53,.88,1.24,1.51,2.19,1.88,.14,.06,.24,.04,.33-.07,.16-.19,.33-.39,.48-.6,.09-.13,.22-.15,.36-.09,.31,.15,.62,.3,.92,.43,.08,.04,.14,.07,.22,.1,.32,.16,.32,.18,.28,.52-.04,.67-.56,1.01-1.14,1.18-.16,.03-.29,.03-.43,.01Z"/></g></svg>