<svg xmlns="http://www.w3.org/2000/svg" xmlns:xlink="http://www.w3.org/1999/xlink" width="115" height="115" viewBox="0 0 115 115">
  <defs>
    <clipPath id="clip-path">
      <rect id="Ret창ngulo_14" data-name="Ret창ngulo 14" width="69.858" height="70.612" fill="none"/>
    </clipPath>
  </defs>
  <g id="whats" transform="translate(-1664 -767)">
    <rect id="Ret창ngulo_13" data-name="Ret창ngulo 13" width="115" height="115" transform="translate(1664 767)" fill="#ccc"/>
    <g id="Grupo_18" data-name="Grupo 18" transform="translate(1686.848 789.086)">
      <g id="Grupo_17" data-name="Grupo 17" clip-path="url(#clip-path)">
        <path id="Caminho_5" data-name="Caminho 5" d="M35.44,0A34.418,34.418,0,0,0,1.023,34.418c0,9.434,4.995,17.866,4.995,17.866L0,70.612l18.859-6.027a34.889,34.889,0,0,0,16.582,4.25A34.418,34.418,0,1,0,35.44,0m0,63.329a31.6,31.6,0,0,1-15.933-4.783L8.636,62.093l3.527-10.524s-5.634-7.8-5.634-17.151A28.911,28.911,0,1,1,35.44,63.329" fill="#fff"/>
        <path id="Caminho_6" data-name="Caminho 6" d="M119.425,115.95a4.037,4.037,0,0,1,1.415-.589h2.711a1.541,1.541,0,0,1,1.061.884c.334.757,2.62,6.129,2.79,6.543a2.265,2.265,0,0,1-.1,2.358c-.712.918-2.2,2.633-2.2,2.633a1.06,1.06,0,0,0-.079,1.375,27.524,27.524,0,0,0,4.657,5.738,22.184,22.184,0,0,0,6.661,4.126c1.434.472,1.749-.157,2.3-.864s2.26-2.869,2.26-2.869a1.352,1.352,0,0,1,1.749-.334c1.159.53,6.8,3.262,6.8,3.262a.916.916,0,0,1,.727.884,6.165,6.165,0,0,1-1.532,5.265c-2.044,2.206-6.391,3.227-8.448,2.652s-8.863-2.356-13.3-6.494-8.032-8.495-9.5-11.707a11.332,11.332,0,0,1-1.307-6.017c.082-.9.554-5.062,3.34-6.846" transform="translate(-97.091 -96.516)" fill="#fff"/>
      </g>
    </g>
  </g>
</svg>
