<svg xmlns="http://www.w3.org/2000/svg" xmlns:xlink="http://www.w3.org/1999/xlink" width="253" height="66" viewBox="0 0 253 66">
  <defs>
    <clipPath id="clip-path">
      <rect id="Ret창ngulo_14" data-name="Ret창ngulo 14" width="40.029" height="40.461" fill="none"/>
    </clipPath>
  </defs>
  <g id="Grupo_70" data-name="Grupo 70" transform="translate(-199 -680)">
    <g id="whats" transform="translate(199 680)">
      <rect id="Ret창ngulo_13" data-name="Ret창ngulo 13" width="253" height="66" rx="9" fill="#ccc"/>
      <g id="Grupo_18" data-name="Grupo 18" transform="translate(36.872 11.655)">
        <g id="Grupo_17" data-name="Grupo 17" clip-path="url(#clip-path)">
          <path id="Caminho_5" data-name="Caminho 5" d="M20.307,0A19.722,19.722,0,0,0,.586,19.722,22.745,22.745,0,0,0,3.448,29.959L0,40.461l10.806-3.453a19.992,19.992,0,0,0,9.5,2.436A19.722,19.722,0,1,0,20.307,0m0,36.288a18.107,18.107,0,0,1-9.13-2.741L4.949,35.58l2.021-6.03a18.834,18.834,0,0,1-3.228-9.827A16.566,16.566,0,1,1,20.307,36.288" fill="#fff"/>
          <path id="Caminho_6" data-name="Caminho 6" d="M117.983,115.7a2.313,2.313,0,0,1,.811-.338h1.554a.883.883,0,0,1,.608.507c.191.434,1.5,3.512,1.6,3.749a1.3,1.3,0,0,1-.056,1.351c-.408.526-1.261,1.509-1.261,1.509a.608.608,0,0,0-.045.788,15.772,15.772,0,0,0,2.669,3.288,12.712,12.712,0,0,0,3.817,2.364c.822.27,1-.09,1.317-.5s1.295-1.644,1.295-1.644a.775.775,0,0,1,1-.191c.664.3,3.9,1.869,3.9,1.869a.525.525,0,0,1,.417.507,3.533,3.533,0,0,1-.878,3.017,5.9,5.9,0,0,1-4.841,1.52c-1.179-.33-5.078-1.35-7.621-3.721a25.007,25.007,0,0,1-5.445-6.708,6.493,6.493,0,0,1-.749-3.448c.047-.515.317-2.9,1.914-3.923" transform="translate(-105.185 -104.563)" fill="#fff"/>
        </g>
      </g>
    </g>
    <text id="whatsapp" transform="translate(293 718)" fill="#707070" font-size="27" font-family="SegoeUI-Bold, Segoe UI" font-weight="700"><tspan x="0" y="0">whatsapp</tspan></text>
  </g>
</svg>
